<?xml version="1.0" encoding="utf-8"?>
<svg width="1189px" height="1304px" version="1.1" style="shape-rendering:geometricPrecision; text-rendering:geometricPrecision; image-rendering:optimizeQuality; fill-rule:evenodd; clip-rule:evenodd" viewBox="0 0 222.46 243.87" xmlns="http://www.w3.org/2000/svg">
  <defs>
    <style type="text/css">
   
    .fil0 {fill:black}
   
  </style>
  </defs>
  <g id="Layer_x0020_1">
    <path class="fil0" d="M100.3 18.9c4.64,4.07 14.16,1.94 23.06,1.36 8.68,-0.57 63.68,-4.66 67.33,-4.18 -61.54,70.14 -123.56,141.61 -185.45,211.38 -4.31,4.86 -8.16,9.43 -2.13,14.72 5.28,4.64 10.41,-1.41 12.97,-4.37 61.19,-70.57 124.22,-141.61 185.85,-211.86 0.95,3.55 4.62,67.24 5.32,77.85 0.34,5.3 -0.53,8.46 3.66,12.14 2.71,2.37 7.52,1.82 9.68,-0.64 3.61,-4.11 0.96,-22.48 0.58,-28.31l-4.6 -70.39c-0.5,-7.58 -0.86,-11.85 -2.67,-14.16l-1.44 -1.26c-2.46,-1.46 -6.63,-1.33 -13.97,-0.85l-84.47 5.52c-3.16,0.21 -11.6,0.23 -13.94,2.9 -2.67,3.04 -2.8,7.5 0.22,10.15z" style="fill: rgb(255, 255, 255);"/>
  </g>
</svg>