<?xml version="1.0" encoding="UTF-8"?>
<!DOCTYPE svg PUBLIC "-//W3C//DTD SVG 1.1//EN" "http://www.w3.org/Graphics/SVG/1.1/DTD/svg11.dtd">
<!-- Creator: CorelDRAW 2021 (64-Bit) -->
<svg xmlns="http://www.w3.org/2000/svg" xml:space="preserve" width="1512px" height="1600px" version="1.1" style="shape-rendering:geometricPrecision; text-rendering:geometricPrecision; image-rendering:optimizeQuality; fill-rule:evenodd; clip-rule:evenodd"
viewBox="0 0 143.09 151.42"
 xmlns:xlink="http://www.w3.org/1999/xlink"
 xmlns:xodm="http://www.corel.com/coreldraw/odm/2003">
 <defs>
  <style type="text/css">
   <![CDATA[
    .fil0 {fill:black}
   ]]>
  </style>
 </defs>
 <g id="Layer_x0020_1">
  <metadata id="CorelCorpID_0Corel-Layer"/>
  <path class="fil0" d="M97.32 124.51c0,-16.56 19.9,-24.91 31.57,-13.24 14.1,14.1 -1.27,38.08 -20.51,29.98 -1.04,-0.44 -1.92,-1.02 -2.84,-1.6l-2.64 -2.09c-0.37,-0.33 -1.74,-1.98 -2.04,-2.4 -2.05,-2.85 -3.54,-6.78 -3.54,-10.65zm17.3 -124.51l3.2 0c3.27,0.2 6.54,1.02 9.77,2.56 13.42,6.39 19.11,22.88 12.72,36.29 -6.85,14.36 -25.26,19.49 -37.8,11.85 -6.51,-3.96 -6.61,-5.8 -8.15,-6.93 -1.04,0.24 -4.15,2.21 -5.42,2.86 -7.51,3.8 -17.91,10.3 -25.63,14.29l-7.78 4.35c-0.96,0.54 -1.44,1.01 -2.57,1.27 0.11,1.29 0.73,2.7 1.01,4.31 1.05,5.89 0.27,8.24 -1.01,13.73l15.77 8.78c0.92,0.51 1.74,0.98 2.62,1.52 0.89,0.54 1.56,0.81 2.48,1.36 5.37,3.21 13.22,7.12 18.22,10.17 0.87,0.53 1.54,0.99 2.61,1.24 1.42,-2.68 5.29,-5.44 8.07,-7.01 7.7,-4.33 17.37,-4.53 25.26,-0.59 1.54,0.77 2.9,1.65 4.19,2.61 2.54,1.9 4.69,4.28 6.43,6.88 8.12,12.12 4.82,28.13 -6.77,36.77 -1.21,0.91 -2.71,1.8 -4.05,2.46 -3.2,1.56 -6.7,2.45 -10.24,2.65l-3.18 0c-3.62,-0.21 -7.19,-1.13 -10.45,-2.76 -5.76,-2.88 -10.15,-7.28 -12.81,-13.21 -3.46,-7.72 -2.62,-12.69 -0.89,-20.11 -1.74,-0.92 -3.57,-1.97 -5.31,-2.97l-10.42 -5.84c-4.29,-2.6 -11.32,-6.12 -15.56,-8.7 -1.61,-0.98 -9.09,-5.25 -10.41,-5.56 -0.52,1.95 -6.3,6.27 -8.57,7.4 -8.17,4.05 -15.25,4.32 -23.84,0.76 -2.56,-1.06 -6.08,-3.61 -8.04,-5.56 -4.86,-4.87 -8.07,-12.25 -8.07,-19.16 0,-14.08 11.89,-27.21 26.93,-27.21 8.08,0 17.65,4.32 21.89,10.65 1.62,-1.09 3.57,-1.97 5.31,-2.97 9.64,-5.57 21.69,-11.82 30.89,-17.31l5.2 -2.79c-1.33,-5.7 -1.48,-3.6 -1.48,-10.35 0,-6.89 3.42,-13.31 8.06,-17.97 2.01,-2.01 4.99,-4.27 7.66,-5.36 3.36,-1.36 6.76,-2.2 10.16,-2.4zm-85.91 94.05l-2.66 0c-8.8,0 -17.16,-8.62 -17.16,-17.45 0,-3.78 0.15,-5.61 1.87,-9.08 0.8,-1.6 2.52,-4.21 3.83,-5.33 3.5,-2.97 8.65,-5.51 13.18,-5.08 7.21,0.69 13.78,4.54 16.37,10.86 3.02,7.4 1.88,14.95 -3.23,20.24 -2.61,2.71 -7.05,5.84 -12.2,5.84zm68.61 -67.14c0,-5.58 2.61,-9.95 5.5,-12.83 7.41,-7.42 18.97,-7.1 25.78,-0.41 11.8,11.59 4.38,31.87 -13.24,31.87 -5.24,0 -10.2,-2.8 -12.8,-5.53 -3.24,-3.41 -5.24,-8.02 -5.24,-13.1z"/>
 </g>
</svg>
