<?xml version="1.0" encoding="UTF-8" standalone="no" ?>
<!DOCTYPE svg PUBLIC "-//W3C//DTD SVG 1.1//EN" "http://www.w3.org/Graphics/SVG/1.1/DTD/svg11.dtd">
<svg xmlns="http://www.w3.org/2000/svg" xmlns:xlink="http://www.w3.org/1999/xlink" version="1.1" width="1080" height="1080" viewBox="0 0 1080 1080" xml:space="preserve">
<desc>Created with Fabric.js 5.2.4</desc>
<defs>
</defs>
<g transform="matrix(1 0 0 1 540 540)" id="0de69a4d-edef-45fd-8354-9c5d5e9ce852"  >
<rect style="stroke: none; stroke-width: 1; stroke-dasharray: none; stroke-linecap: butt; stroke-dashoffset: 0; stroke-linejoin: miter; stroke-miterlimit: 4; fill: rgb(255,255,255); fill-rule: nonzero; opacity: 1; visibility: hidden;" vector-effect="non-scaling-stroke"  x="-540" y="-540" rx="0" ry="0" width="1080" height="1080" />
</g>
<g transform="matrix(1 0 0 1 540 540)" id="e6c297df-020a-4d83-8241-59df8fee3b2b"  >
</g>
<g transform="matrix(1 0 0 1 540 540)" id="a1fb1f4f-f35e-4a36-baaa-1f773af17409"  >
<path style="stroke: rgb(0,0,0); stroke-width: 0; stroke-dasharray: none; stroke-linecap: butt; stroke-dashoffset: 0; stroke-linejoin: miter; stroke-miterlimit: 4; fill: rgb(0,0,0); fill-rule: nonzero; opacity: 1;" vector-effect="non-scaling-stroke"  transform=" translate(-111.23, -121.94)" d="M 100.3 18.9 C 104.94 22.97 114.46 20.84 123.36 20.259999999999998 C 132.04 19.689999999999998 187.04 15.599999999999998 190.69 16.08 C 129.15 86.22 67.13 157.69 5.240000000000009 227.45999999999998 C 0.9300000000000095 232.32 -2.919999999999991 236.89 3.110000000000009 242.17999999999998 C 8.39000000000001 246.81999999999996 13.52000000000001 240.76999999999998 16.08000000000001 237.80999999999997 C 77.27000000000001 167.23999999999998 140.3 96.19999999999996 201.93 25.94999999999996 C 202.88 29.49999999999996 206.55 93.18999999999996 207.25 103.79999999999995 C 207.59 109.09999999999995 206.72 112.25999999999996 210.91 115.93999999999996 C 213.62 118.30999999999996 218.43 117.75999999999995 220.59 115.29999999999995 C 224.20000000000002 111.18999999999996 221.55 92.81999999999995 221.17000000000002 86.98999999999995 L 216.57000000000002 16.59999999999995 C 216.07000000000002 9.019999999999952 215.71 4.749999999999952 213.90000000000003 2.4399999999999515 L 212.46000000000004 1.1799999999999515 C 210.00000000000003 -0.28000000000004843 205.83000000000004 -0.15000000000004854 198.49000000000004 0.32999999999995155 L 114.02000000000004 5.849999999999951 C 110.86000000000004 6.059999999999951 102.42000000000004 6.079999999999951 100.08000000000004 8.74999999999995 C 97.41000000000004 11.78999999999995 97.28000000000004 16.24999999999995 100.30000000000004 18.89999999999995 z" stroke-linecap="round" />
</g>
</svg>