<?xml version="1.0" encoding="utf-8"?>
<svg width="489px" height="519px" version="1.1" style="shape-rendering:geometricPrecision; text-rendering:geometricPrecision; image-rendering:optimizeQuality; fill-rule:evenodd; clip-rule:evenodd" viewBox="0 0 19 20.17" xmlns="http://www.w3.org/2000/svg">
  <defs>
    <style type="text/css">
   
    .fil0 {fill:black}
   
  </style>
  </defs>
  <g id="Layer_x0020_1">
    <g id="_2492251558288">
      <path class="fil0" d="M9.89 0c-1.06,0 -2.11,1.44 -2.83,2.16l-4.98 4.98c-2.73,2.73 -2.79,3.1 -0.06,5.83l6.19 6.19c0.37,0.37 0.89,1.01 1.55,1.01 0.58,0 1.22,-0.54 1.22,-1.34 0,-0.67 -1.24,-1.66 -1.91,-2.34l-6.35 -6.41c1.11,-1.66 8.21,-7.6 8.32,-8.78 0.06,-0.58 -0.46,-1.3 -1.15,-1.3z" style="fill: rgb(76, 91, 99);"/>
      <path class="fil0" d="M17.9 0c-1,0 -0.76,0.09 -1.79,1.12l-6.13 6.14c-2.78,2.77 -2.73,2.92 0.06,5.71 0.86,0.86 1.63,1.63 2.49,2.49l3.64 3.64c0.38,0.38 0.84,1.07 1.49,1.07 1.15,0 1.21,-0.9 1.21,-1.58 0,-0.79 -7.37,-7.37 -8.13,-8.51 1.11,-1.66 8.26,-7.58 8.26,-8.87 0,-0.61 -0.44,-1.21 -1.1,-1.21z" style="fill: rgb(76, 91, 99);"/>
    </g>
  </g>
</svg>