<?xml version="1.0" encoding="utf-8"?>
<svg viewBox="0 0 18.38 35.39" style="shape-rendering:geometricPrecision; text-rendering:geometricPrecision; image-rendering:optimizeQuality; fill-rule:evenodd; clip-rule:evenodd" xmlns="http://www.w3.org/2000/svg">
  <defs>
    <style type="text/css">
   
    .fil0 {fill:#010002}
   
  </style>
  </defs>
  <g id="Layer_x0020_1">
    <path class="fil0" d="M5.39 9.26l0 3.66 -5.39 0 0 6.36 5.39 0 0 16.11 6.57 0 0 -16.11 5.39 0 0.83 -6.36 -6.22 0 0 -4.14c0,-2.65 1.52,-2.91 3.8,-2.91l2.62 0 0 -5.66c-0.65,0 -1.25,-0.14 -1.86,-0.14 -0.99,-0.01 -1.87,-0.06 -2.7,-0.07l-0.52 0c-1.89,0.02 -3.53,0.36 -5.54,2.02 -0.67,0.56 -1.31,1.71 -1.68,2.54 -0.57,1.3 -0.69,3.07 -0.69,4.7z" style="fill: rgb(209, 215, 173);"/>
  </g>
</svg>