<?xml version="1.0" encoding="utf-8"?>
<svg viewBox="0 0 48.62 48.79" style="shape-rendering:geometricPrecision; text-rendering:geometricPrecision; image-rendering:optimizeQuality; fill-rule:evenodd; clip-rule:evenodd" xmlns="http://www.w3.org/2000/svg">
  <defs>
    <style type="text/css">
   
    .fil0 {fill:black}
   
  </style>
  </defs>
  <g id="Layer_x0020_1">
    <path class="fil0" d="M24.72 32.59c-2.4,0 -4.46,-0.77 -6.08,-2.38 -5.02,-4.98 -1.67,-13.94 5.88,-13.94 7.47,0 11.25,9.82 4.69,14.77 -1.11,0.84 -2.95,1.55 -4.49,1.55zm9.88 -21.6l0 0.48c0,1.47 1.32,2.78 2.79,2.78 1.05,0 1.54,-0.12 2.33,-0.93 2.59,-2.7 -1.4,-6.77 -4.14,-4.23 -0.42,0.4 -0.98,1.12 -0.98,1.9zm-20.81 -10.99l21.04 0c3.8,0 7.24,1.55 9.74,4.05 2.5,2.5 4.05,5.94 4.05,9.74l0 21.21c0,3.8 -1.55,7.24 -4.05,9.74 -2.5,2.5 -5.94,4.05 -9.74,4.05l-21.04 0c-3.8,0 -7.24,-1.55 -9.74,-4.05 -2.5,-2.5 -4.05,-5.94 -4.05,-9.74l0 -21.21c0,-3.8 1.55,-7.24 4.05,-9.74 2.5,-2.5 5.94,-4.05 9.74,-4.05zm21.04 4.33l-21.04 0c-2.6,0 -4.96,1.07 -6.68,2.78 -1.71,1.72 -2.78,4.08 -2.78,6.68l0 21.21c0,2.6 1.07,4.96 2.78,6.68 1.72,1.71 4.08,2.77 6.68,2.77l21.04 0c2.6,0 4.96,-1.06 6.68,-2.77 1.71,-1.72 2.78,-4.08 2.78,-6.68l0 -21.21c0,-2.6 -1.07,-4.96 -2.78,-6.68 -1.72,-1.71 -4.08,-2.78 -6.68,-2.78zm-23.07 20.1c0,11.09 13.93,17.56 22.34,8.13 1.86,-2.09 3,-5.27 3,-8.13 0,-9.73 -10.95,-16.37 -19.89,-10.39 -3.06,2.05 -5.45,6 -5.45,10.39z" style="fill: rgb(209, 215, 173);"/>
  </g>
</svg>