<?xml version="1.0" encoding="UTF-8"?>
<!DOCTYPE svg PUBLIC "-//W3C//DTD SVG 1.1//EN" "http://www.w3.org/Graphics/SVG/1.1/DTD/svg11.dtd">
<!-- Creator: CorelDRAW 2021 (64-Bit) -->
<svg xmlns="http://www.w3.org/2000/svg" xml:space="preserve" width="1200px" height="938px" version="1.1" style="shape-rendering:geometricPrecision; text-rendering:geometricPrecision; image-rendering:optimizeQuality; fill-rule:evenodd; clip-rule:evenodd"
viewBox="0 0 193.43 151.08"
 xmlns:xlink="http://www.w3.org/1999/xlink"
 xmlns:xodm="http://www.corel.com/coreldraw/odm/2003">
 <defs>
  <style type="text/css">
   <![CDATA[
    .fil0 {fill:black}
   ]]>
  </style>
 </defs>
 <g id="Layer_x0020_1">
  <metadata id="CorelCorpID_0Corel-Layer"/>
  <g id="_2492251574272">
   <path class="fil0" d="M0 10.07c0,7.9 4.58,12.09 12.09,12.09l169.21 0c3.33,0 6.37,-1.17 8.37,-2.7 5.02,-3.86 5.01,-12.93 0,-16.76 -2.38,-1.81 -4.89,-2.7 -8.88,-2.7l-168.2 0c-6.76,0 -12.59,3.81 -12.59,10.07z"/>
   <path class="fil0" d="M0 74.53c0,3.82 0.43,6.87 3.71,9.39 2,1.53 5.05,2.7 8.38,2.7l104.75 0c16.03,0 16.67,-22.16 -0.51,-22.16l-103.74 0c-6.76,0 -12.59,3.81 -12.59,10.07z"/>
   <path class="fil0" d="M0 138.99c0,7.9 4.58,12.09 12.09,12.09l50.36 0c17.29,0 17.29,-22.16 0,-22.16l-49.86 0c-6.76,0 -12.59,3.81 -12.59,10.07z"/>
  </g>
 </g>
</svg>
