<?xml version="1.0" encoding="utf-8"?>
<svg viewBox="0 0 82.9 82.9" style="shape-rendering:geometricPrecision; text-rendering:geometricPrecision; image-rendering:optimizeQuality; fill-rule:evenodd; clip-rule:evenodd" xmlns="http://www.w3.org/2000/svg">
  <defs>
    <style type="text/css">
   
    .fil0 {fill:black}
   
  </style>
  </defs>
  <g id="Layer_x0020_1" transform="matrix(1, 0, 0, 1, 0, 8.881784197001252e-16)">
    <g id="_2492251541440">
      <path class="fil0" d="M41.45 75.62c-2.22,0 -3.83,-0.17 -5.81,-0.51 -0.77,-0.13 -1.61,-0.3 -2.42,-0.49 -2.99,-0.74 -5.92,-1.94 -8.56,-3.43 -2.26,-1.27 -2.9,-0.69 -5.3,-0.01 -1.11,0.31 -1.97,0.5 -3.06,0.82l-6.1 1.67 1.11 -2.45c2.05,-5.05 4.51,-7.1 2.01,-10.38 -0.31,-0.42 -0.44,-0.66 -0.7,-1.08 -0.23,-0.38 -0.44,-0.65 -0.69,-1.09 -5.52,-9.96 -6.26,-20.87 -1.57,-31.31 0.96,-2.14 2.43,-4.78 3.93,-6.6 3.37,-4.08 5.25,-5.97 10.07,-8.87 7.32,-4.4 16.58,-5.6 24.93,-3.7 5.6,1.28 9.74,3.67 14.12,7.1 3.26,2.55 6.51,6.86 8.49,10.61 11.27,21.46 -4.05,49.72 -30.45,49.72zm1.8 7.28l-3.4 0c-4.84,-0.19 -9.64,-1.23 -14.13,-3.05 -0.69,-0.28 -1.36,-0.55 -2.03,-0.88 -0.47,-0.24 -1.47,-0.84 -1.83,-0.85l-13.44 3.81c-1.97,0.52 -5.49,1.86 -7.33,0.05 -1.53,-1.52 -1.22,-3.33 -0.44,-5.07 0.27,-0.61 0.54,-1.21 0.86,-1.89 0.31,-0.66 0.54,-1.22 0.86,-1.89l4.11 -9.17c0,-0.39 -0.42,-0.86 -0.62,-1.17 -1.34,-2.04 -3.01,-5.92 -3.78,-8.2 -1.81,-5.45 -2.08,-8.67 -2.08,-14.6 0,-5.7 1.99,-12.35 3.88,-16.19 1.14,-2.31 2.31,-4.3 3.73,-6.31 0.37,-0.53 0.67,-0.98 1.1,-1.5 2.54,-3.1 4.31,-4.91 7.46,-7.43 2.09,-1.67 5.28,-3.55 7.74,-4.73 6.12,-2.94 11.54,-3.83 19,-3.83 6.53,0 14.06,2.4 19.46,5.64 1.1,0.65 2.05,1.26 3.05,1.97 1.74,1.23 2.55,1.94 4.08,3.36 1.43,1.32 2.38,2.2 3.67,3.79 2.6,3.22 3.9,4.98 5.9,9.15 2.94,6.12 3.83,11.54 3.83,19 0,9.67 -4.42,19.52 -10.97,26.59l-2.51 2.51c-4.78,4.61 -11.5,8.11 -17.83,9.7 -2.75,0.68 -5.54,1.08 -8.34,1.19z" style="fill: rgb(209, 215, 173);"/>
      <path class="fil0" d="M21.21 30.76c0,3.5 0.1,4.23 1.57,7.66 0.4,0.94 0.83,1.58 1.29,2.44 0.47,0.86 0.9,1.48 1.45,2.28l3.34 4.1c1.35,1.34 0.51,0.78 2.75,2.75 3.3,2.91 5.56,4.87 9.73,7.11 4.45,2.4 13.03,5.65 17.8,1.39 9.32,-8.31 -5.91,-14.57 -8.82,-11.57 -3.37,3.46 -1.2,6.35 -8.54,2.14 -0.62,-0.36 -1.4,-0.9 -2.04,-1.36 -2.5,-1.8 -7.84,-7.25 -7.84,-9.49 0,-0.72 0.37,-0.9 0.74,-1.36 0.4,-0.51 0.64,-0.75 1.02,-1.25 0.53,-0.7 1.31,-1.88 1.31,-3.05 0,-3.42 -2.84,-10.04 -6.96,-10.04 -3.32,0 -6.8,4.78 -6.8,8.25z" style="fill: rgb(209, 215, 173);"/>
    </g>
  </g>
</svg>